<svg width="100%" height="100%" viewBox="0 0 304 239" fill="none" xmlns="http://www.w3.org/2000/svg">
<g clip-path="url(#clip0)">
<path d="M9.00243 237.486C4.93526 236.241 -0.0144741 231.063 1.04521 223.945C1.57076 220.415 3.58789 218.13 5.67941 216.653C8.57241 214.609 11.8672 213.839 15.0424 213.645C18.7047 213.42 22.363 213.986 25.9979 214.584C29.5864 215.175 33.1752 215.704 36.7797 216.027C50.8843 217.281 65.075 216.087 78.8615 212.486C82.2641 211.596 85.6464 210.552 89.0082 209.354C92.194 208.291 95.3086 206.972 98.3284 205.406C102.325 203.231 108.825 198.999 108.295 191.161C108.014 187.005 105.855 183.686 103.677 181.374C101.043 178.578 97.9958 176.738 95.0111 174.952C81.1278 166.642 67.2175 158.432 53.3207 150.172C50.0774 148.245 46.8125 146.369 43.6648 144.11C40.7178 141.995 37.7845 139.538 35.4129 136.141C33.3415 133.174 31.4905 129.191 31.5558 124.739C31.61 121.046 33.0926 117.913 34.9085 115.571C39.4042 109.773 45.7638 107.422 51.5116 106.191C58.6526 104.661 65.897 104.669 73.0427 103.192C78.8124 101.999 84.9773 99.6963 89.6697 94.3004C91.6547 92.1057 93.0586 89.3257 93.723 86.2743C94.3222 83.0784 94.031 79.7504 92.8895 76.7501C91.6184 73.3092 89.5908 70.5681 87.4589 68.3235C85.0098 65.7811 82.2321 63.6779 79.2222 62.0869C72.8847 58.6642 66.2204 56.8821 59.7288 54.2555C56.5451 52.9673 53.3292 51.5548 50.373 49.3422C47.8685 47.4676 45.1402 44.9409 43.7468 41.1834C40.8718 33.4309 47.7305 28.8105 51.6168 27.0603C54.2583 25.9249 56.9791 25.0421 59.7506 24.4213C60.3366 24.2787 60.088 22.953 59.5047 23.0949C56.5874 23.7395 53.7282 24.6857 50.9632 25.9216C48.6197 27.0251 46.2016 28.4754 44.3607 30.971C43.5226 32.0978 42.9029 33.4118 42.5419 34.8276C42.1809 36.2434 42.0866 37.7294 42.2652 39.1892C42.7528 42.909 44.8723 45.7752 46.8629 47.8512C49.4952 50.5965 52.4966 52.3894 55.5396 53.8508C58.7445 55.3901 62.0174 56.5896 65.2891 57.7663C71.8269 60.1174 78.6579 62.2127 84.5597 67.2158C88.6882 70.7157 94.2967 77.2777 92.9234 85.4115C92.3138 89.0222 90.4626 91.8451 88.4649 93.9214C86.1189 96.2878 83.4134 98.1522 80.48 99.4239C67.4016 105.389 53.0079 101.123 40.2665 109.225C35.9344 111.98 30.6724 116.996 30.63 124.887C30.608 128.987 32.058 132.746 33.8505 135.718C35.9974 139.278 38.7775 141.91 41.6062 144.109C44.5846 146.341 47.6772 148.37 50.8677 150.187C54.353 152.262 57.8391 154.334 61.326 156.403L82.4862 168.979L92.9998 175.228C96.2086 177.135 99.4998 178.964 102.417 181.764C104.806 184.056 107.628 187.817 107.385 192.486C107.191 196.195 105.017 198.871 103.031 200.66C100.459 202.977 97.5698 204.475 94.6951 205.721C91.3793 207.157 88.009 208.348 84.6322 209.42C77.715 211.611 70.6555 213.177 63.5199 214.103C56.4021 215.032 49.2315 215.335 42.0724 215.009C38.4551 214.844 34.8435 214.516 31.2375 214.025C27.5205 213.518 23.8194 212.736 20.0928 212.39C16.722 212.076 13.3187 212.149 9.99917 213.157C7.22742 213.999 4.29913 215.499 2.19514 218.427C0.644357 220.662 -0.132216 223.463 0.0115404 226.302C0.153989 229.135 1.04521 231.853 2.56931 234.105C4.11741 236.404 6.29266 238.059 8.75661 238.812C9.33762 238.99 9.5861 237.664 9.0025 237.486L9.00243 237.486Z" fill="#E6E6E6"/>
<path d="M113.544 238.114H7.86893V238.942H113.544V238.114Z" fill="#3F3D56"/>
<path d="M105.403 199.099C109.216 199.099 112.307 195.597 112.307 191.275C112.307 186.954 109.216 183.451 105.403 183.451C101.59 183.451 98.4997 186.954 98.4997 191.275C98.4997 195.597 101.59 199.099 105.403 199.099Z" fill="#E6E6E6"/>
<path d="M33.7801 128.373C37.5928 128.373 40.6835 124.87 40.6835 120.549C40.6835 116.228 37.5928 112.725 33.7801 112.725C29.9675 112.725 26.8767 116.228 26.8767 120.549C26.8767 124.87 29.9675 128.373 33.7801 128.373Z" fill="#E6E6E6"/>
<path d="M46.6295 207.034C46.6295 207.034 40.6621 216.197 39.3146 217.725C37.9671 219.252 37.5821 224.924 37.5821 224.924L39.8921 231.033L38.5446 234.087L28.1498 222.306L39.3146 203.544L46.6295 207.034Z" fill="#FFB8B8"/>
<path d="M72.0391 150.966C72.0391 150.966 50.4395 225.559 48.1295 227.304C45.8196 229.049 34.4436 218.094 31.1711 215.476C27.8987 212.858 55.8697 163.053 55.8697 163.053C51.4423 146.691 53.5594 142.893 53.5594 142.893L72.0391 150.966Z" fill="#2F2E41"/>
<path d="M38.1596 232.342C38.1596 232.342 38.1596 229.724 38.9031 228.417C39.6466 227.111 41.0471 232.996 41.0471 232.996C41.0471 232.996 49.517 235.614 45.667 238.45C41.8171 241.287 30.4598 232.342 27.1873 229.942C23.9149 227.542 25.0698 224.706 26.8023 222.742L30.171 218.925L38.1596 232.342Z" fill="#2F2E41"/>
<path d="M78.9689 211.834C78.9689 211.834 80.7014 217.506 82.2414 222.961C83.7814 228.415 91.0963 231.251 91.0963 231.251L92.4437 235.178L88.4013 237.36L76.659 234.087C76.659 234.087 77.044 229.724 77.044 228.197C77.044 226.669 70.8841 213.798 70.8841 213.798L78.9689 211.834Z" fill="#FFB8B8"/>
<path d="M63.7617 85.7338C68.2269 85.7338 71.8466 81.6314 71.8466 76.5708C71.8466 71.5102 68.2269 67.4078 63.7617 67.4078C59.2966 67.4078 55.6768 71.5102 55.6768 76.5708C55.6768 81.6314 59.2966 85.7338 63.7617 85.7338Z" fill="#FFB8B8"/>
<path d="M59.3343 81.3705C59.3343 82.6795 53.5594 92.7151 53.5594 92.7151L62.0192 96.9945L65.8792 84.4248L59.3343 81.3705Z" fill="#FFB8B8"/>
<path d="M67.0342 129.149C68.6224 129.14 70.1506 129.837 71.2906 131.09C72.4306 132.344 73.0917 134.054 73.1319 135.853L73.3866 147.257L74.734 149.875C74.734 149.875 83.0248 219.948 83.0248 222.129C83.0248 224.311 74.7923 230.328 69.9799 229.891C67.5992 229.675 62.2614 204.887 60.1435 191.316C58.6358 181.654 57.1645 171.14 55.6867 163.379C55.1933 160.58 54.5471 157.819 53.7519 155.111C49.5169 141.803 56.8318 129.149 56.8318 129.149H67.0342V129.149Z" fill="#2F2E41"/>
<path d="M89.46 234.196C89.46 234.196 90.5188 234.523 89.3638 234.087C88.2088 233.651 88.5938 231.251 88.6413 230.031C88.6888 228.812 99.9511 232.778 99.9511 235.832C99.9511 238.887 85.5138 238.887 81.2789 238.45C77.044 238.014 76.0815 238.45 75.504 235.396C74.9265 232.342 77.1402 228.088 77.1402 228.088L89.46 234.196Z" fill="#2F2E41"/>
<path d="M57.5963 135.229C59.1017 135.229 62.3394 130.847 64.0339 132.767C65.2663 134.164 66.3121 135.506 67.2347 136.69C69.8833 140.088 72.1986 143.202 73.8076 140.968C74.0509 140.63 73.2332 141.41 73.915 140.884C74.1978 140.666 74.4137 140.353 74.5328 139.99C74.652 139.626 74.6684 139.23 74.5799 138.855C72.2453 130.566 70.7915 122.625 72.648 115.991C72.7857 115.465 72.8516 114.917 72.8432 114.368C72.8433 114.288 72.8466 114.207 72.8531 114.127C72.9512 112.903 72.9265 108.519 68.4944 103.496C64.4437 98.9048 63.6666 96.0837 63.5641 94.8107C63.54 94.5143 57.0103 86.8362 57.0103 86.8362C56.6684 86.6735 56.288 86.6467 55.931 86.7603C55.574 86.8738 55.2615 87.121 55.0443 87.4616L52.9527 90.721C50.6791 95.8229 49.6868 101.535 50.0843 107.233C50.6505 114.629 51.6337 129.255 52.4411 134.531C52.508 135.011 52.733 135.446 53.0708 135.746C53.3036 135.951 53.581 136.079 53.8735 136.119C54.1659 136.158 54.4622 136.106 54.7306 135.969C55.6288 135.495 56.6056 135.243 57.5963 135.229Z" fill="#6C63FF"/>
<path d="M65.7021 76.9206L64.2507 75.1824C64.3715 84.3357 71.9912 89.4428 71.9912 89.4428L54.9783 87.5206L54.5483 85.0925L53.6595 87.092L51.5823 86.4958L50.9847 85.0153L49.7029 85.8061L52.3331 74.0354C54.9306 62.8065 62.8514 64.4537 62.8514 64.4537C73.9417 60.5223 72.5825 72.511 72.5825 72.511L65.7021 76.9206Z" fill="#2F2E41"/>
<path opacity="0.2" d="M59.2225 194.284L56.137 163.356L59.9308 192.005L59.2225 194.284Z" fill="black"/>
<path d="M53.7308 69.4194C56.0934 69.4194 58.0087 67.2487 58.0087 64.571C58.0087 61.8933 56.0934 59.7227 53.7308 59.7227C51.3682 59.7227 49.4529 61.8933 49.4529 64.571C49.4529 67.2487 51.3682 69.4194 53.7308 69.4194Z" fill="#2F2E41"/>
<path d="M54.4101 68.4988C54.4991 68.4986 54.5877 68.5012 54.6778 68.4947L54.6868 68.494C55.8185 68.4096 56.8744 67.8192 57.6222 66.8527C58.37 65.8862 58.7485 64.6227 58.6746 63.34C58.6006 62.0572 58.0802 60.8603 57.2278 60.0123C56.3754 59.1643 55.2607 58.7347 54.1289 58.8179C54.0388 58.8245 53.9512 58.8399 53.8629 58.8526C54.9507 58.8491 55.9987 59.3159 56.7933 60.158C57.5878 61 58.069 62.1538 58.1388 63.3841C58.2086 64.6144 57.8617 65.8286 57.1688 66.779C56.476 67.7294 55.4893 68.3445 54.4101 68.4989V68.4988Z" fill="#2F2E41"/>
<path d="M64.4256 79.4191C65.1639 79.4191 65.7624 78.4695 65.7624 77.298C65.7624 76.1265 65.1639 75.1768 64.4256 75.1768C63.6872 75.1768 63.0887 76.1265 63.0887 77.298C63.0887 78.4695 63.6872 79.4191 64.4256 79.4191Z" fill="#FFB8B8"/>
<path d="M80.4363 147.643L85.9321 152.051C86.4104 152.435 86.806 152.937 87.0889 153.518C87.3719 154.1 87.5349 154.747 87.5658 155.41C87.5967 156.073 87.4946 156.736 87.2673 157.348C87.04 157.96 86.6932 158.506 86.2532 158.945C85.8293 159.367 85.3293 159.68 84.7879 159.861C84.2465 160.042 83.6768 160.087 83.1185 159.993C82.5602 159.899 82.0268 159.668 81.5554 159.316C81.084 158.964 80.6859 158.5 80.389 157.956L77.2088 152.128L66.0175 132.96L70.6548 129.093L80.4363 147.643Z" fill="#FEB8B8"/>
<path opacity="0.2" d="M71.6105 130.465C71.6325 133.862 68.6702 136.812 64.4861 137.239L54.8877 114.125C53.8803 111.699 53.5029 108.998 53.7998 106.338C54.0966 103.678 55.0554 101.169 56.5641 99.1036L66.2534 112.449C66.5542 118.25 68.7381 124.263 71.6105 130.465Z" fill="black"/>
<path d="M71.6105 128.987C71.6325 132.384 69.9747 134.595 65.7906 135.021L56.1922 111.908C55.1848 109.482 54.8074 106.781 55.1043 104.121C55.4011 101.461 56.3599 98.9512 57.8686 96.8859L67.5579 110.231C67.8587 116.032 68.7382 122.785 71.6105 128.987Z" fill="#6C63FF"/>
<path d="M302.111 84.9495H291.704C290.9 84.9903 290.124 85.2918 289.467 85.8181C288.81 86.3444 288.301 87.0733 287.999 87.9183L285.639 95.6211L283.751 101.585L281.108 110.224C280.832 111.256 280.46 112.251 279.999 113.193C279.521 112.248 279.141 111.242 278.866 110.198L276.341 101.612C275.845 99.954 275.019 97.2794 274.5 95.6211L272.14 87.9183C271.837 87.0693 271.323 86.3377 270.662 85.8111C270.001 85.2845 269.219 84.9853 268.412 84.9495H228.388C228.022 84.9495 227.66 85.0311 227.322 85.1897C226.984 85.3483 226.677 85.5808 226.419 85.8739C226.16 86.1669 225.955 86.5148 225.815 86.8977C225.675 87.2807 225.603 87.691 225.603 88.1055V106.106C225.603 106.95 225.307 107.759 224.78 108.356C224.254 108.953 223.539 109.288 222.795 109.288H211.184C210.441 109.281 209.73 108.944 209.205 108.348C208.68 107.753 208.382 106.948 208.376 106.106V88.1055C208.376 87.2911 208.099 86.508 207.602 85.9198C207.105 85.3316 206.427 84.984 205.709 84.9494H196.033C195.293 84.9494 194.582 85.2811 194.056 85.8722C193.53 86.4633 193.231 87.266 193.225 88.1055V96.4235C198.37 103.859 198.37 117.392 193.225 137.559V147.161C193.231 148 193.53 148.803 194.056 149.394C194.582 149.985 195.293 150.317 196.033 150.317H205.709C206.075 150.317 206.437 150.235 206.775 150.077C207.112 149.918 207.419 149.685 207.678 149.392C207.937 149.099 208.142 148.751 208.282 148.368C208.422 147.986 208.494 147.575 208.494 147.161V127.529C208.493 126.708 208.773 125.918 209.274 125.325C209.775 124.731 210.46 124.381 211.184 124.346H222.795C223.533 124.339 224.244 124.665 224.771 125.252C225.297 125.839 225.597 126.639 225.603 127.476L225.603 127.502V147.134C225.603 147.971 225.896 148.774 226.419 149.366C226.941 149.957 227.649 150.29 228.388 150.29H261.025C261.764 150.29 262.472 149.957 262.994 149.366C263.516 148.774 263.81 147.971 263.81 147.134V139.003C263.81 138.166 263.516 137.363 262.994 136.772C262.472 136.18 261.764 135.847 261.025 135.847H243.703C242.963 135.84 242.254 135.502 241.733 134.906C241.211 134.309 240.919 133.504 240.919 132.664V127.315C240.919 126.476 241.211 125.67 241.733 125.074C242.254 124.478 242.963 124.139 243.703 124.132H254.158C254.896 124.132 255.605 123.8 256.127 123.208C256.649 122.616 256.942 121.813 256.942 120.976V112.846C256.942 112.009 256.649 111.206 256.127 110.614C255.605 110.022 254.896 109.69 254.158 109.69H243.703C242.963 109.682 242.254 109.344 241.733 108.748C241.211 108.152 240.919 107.346 240.919 106.507V102.602C240.912 101.765 241.2 100.959 241.718 100.362C242.235 99.7656 242.941 99.4263 243.68 99.4192L243.703 99.4191H257.863C258.685 99.4691 259.481 99.7621 260.173 100.269C260.864 100.776 261.426 101.478 261.804 102.308L270.984 124.908C271.704 126.823 272.104 128.872 272.164 130.953V147.161C272.164 147.998 272.457 148.8 272.979 149.392C273.502 149.984 274.21 150.317 274.949 150.317H284.624C285.363 150.324 286.073 149.998 286.6 149.411C287.127 148.824 287.426 148.025 287.432 147.188L287.432 147.161V130.953C287.496 128.876 287.888 126.828 288.589 124.908L303.739 87.8113C303.91 87.5091 304 87.1577 304 86.7989C303.999 86.4402 303.908 86.0892 303.736 85.7877C303.565 85.4862 303.32 85.2469 303.032 85.0983C302.744 84.9497 302.424 84.898 302.111 84.9494V84.9495Z" fill="url(#paint0_linear)"/>
<path d="M179.75 96.0758C176.042 97.2137 172.68 99.4798 170.027 102.629C166.936 90.3254 160.281 71.7101 153.791 68.6611C153.105 68.2998 152.353 68.1307 151.597 68.1679C150.841 68.2051 150.104 68.4477 149.449 68.8751C145.39 71.5497 142.747 80.1619 145.059 96.477C136.139 77.9687 133.024 77.9955 131.584 77.9687C130.893 77.9797 130.219 78.2215 129.649 78.6639C129.078 79.1063 128.635 79.7297 128.375 80.4561C127.407 82.89 125.472 90.4858 130.192 106.828C124.505 98.0015 122.758 96.8781 120.752 96.9851C120.11 97.028 119.491 97.267 118.959 97.6766C118.427 98.0863 118.003 98.6514 117.732 99.312C116.032 102.949 116.221 112.097 121.507 125.737C119.697 123.926 117.404 122.853 114.994 122.688C114.345 122.74 113.718 122.975 113.169 123.372C112.621 123.769 112.169 124.315 111.855 124.961C109.708 129.428 114.215 141.972 119.785 150.477C124.292 157.458 133.331 168.183 146.452 168.183C148.289 168.18 150.122 167.983 151.927 167.595C152.554 167.469 153.112 167.065 153.478 166.473C153.843 165.881 153.986 165.149 153.876 164.438C153.765 163.726 153.409 163.093 152.887 162.679C152.365 162.264 151.719 162.102 151.091 162.227C151.063 162.232 151.035 162.239 151.006 162.245C140.104 164.653 131.891 157.859 126.912 151.761C119.478 142.641 116.221 131.675 116.032 128.331C117.59 129.054 122.074 132.049 130.806 144.727C131.175 145.312 131.734 145.707 132.36 145.825C132.987 145.943 133.628 145.774 134.145 145.355C134.661 144.937 135.01 144.303 135.114 143.593C135.218 142.883 135.069 142.156 134.699 141.571C122.428 120.468 121.224 107.684 121.625 103.377C125.236 107.55 134.251 122.849 141.047 134.403C141.389 134.988 141.917 135.401 142.521 135.556C143.126 135.71 143.759 135.594 144.289 135.231C144.82 134.869 145.206 134.288 145.367 133.61C145.528 132.932 145.452 132.21 145.154 131.594C130.994 102.174 131.49 88.8009 132.316 84.3075C134.44 86.7414 140.08 95.2199 151.95 124.427C152.215 125.058 152.684 125.549 153.259 125.8C153.835 126.051 154.474 126.041 155.043 125.773C155.613 125.506 156.07 125 156.32 124.361C156.57 123.722 156.594 122.999 156.387 122.34C144.871 86.9019 149.874 74.8929 151.785 73.5289C154.263 73.5289 161.225 87.0624 165.567 104.795C165.826 105.892 166.086 106.961 166.322 108.004C165.713 109.218 165.237 110.511 164.906 111.856C162.546 121.672 160.186 143.951 164.741 150.076C165.194 150.718 165.78 151.222 166.448 151.544C167.115 151.866 167.842 151.996 168.564 151.921C169.478 151.809 170.359 151.467 171.143 150.921C171.926 150.376 172.593 149.639 173.095 148.765C177.319 141.785 174.841 124.266 171.467 108.941C173.765 105.255 177.09 102.552 180.906 101.264C181.722 100.974 182.592 100.94 183.423 101.166C184.254 101.392 185.016 101.87 185.626 102.548C187.561 105.009 190.936 114.21 180.694 146.652C180.589 146.99 180.543 147.347 180.559 147.704C180.576 148.061 180.654 148.412 180.79 148.734C181.064 149.386 181.556 149.888 182.157 150.129C182.758 150.371 183.419 150.331 183.994 150.02C184.569 149.709 185.012 149.152 185.225 148.471C193.39 122.608 194.665 105.945 189.213 98.9376C188.027 97.5099 186.513 96.4856 184.841 95.98C183.169 95.4744 181.406 95.5076 179.75 96.0758ZM169.13 145.743C168.954 146.103 168.669 146.378 168.328 146.519C166.558 144.138 166.558 130.043 168.493 118.489C172.151 138.468 170.027 144.326 169.13 145.743V145.743Z" fill="url(#paint1_linear)"/>
<path d="M77.2006 0.327282L58.032 9.77153C57.1854 10.1899 56.5198 10.9718 56.1813 11.9457C55.8427 12.9196 55.8588 14.0059 56.2261 14.9663L62.1782 30.484C62.5474 31.4435 63.2373 32.1978 64.0966 32.5815C64.9559 32.9652 65.9144 32.947 66.7618 32.5307L85.9304 23.0865C86.777 22.6681 87.4426 21.8862 87.7812 20.9123C88.1197 19.9384 88.1036 18.8521 87.7363 17.8916L81.7842 2.37402C81.415 1.41453 80.7251 0.660183 79.8658 0.276478C79.0065 -0.107226 78.048 -0.0889551 77.2006 0.327282ZM77.9942 2.3963C78.1088 2.34043 78.2292 2.30114 78.3525 2.27936L71.8718 16.137L58.5612 12.0087C58.6441 11.9426 58.7327 11.8863 58.8256 11.8405L77.9942 2.3963ZM85.1368 21.0175L65.9682 30.4617C65.605 30.6401 65.1942 30.6479 64.826 30.4835C64.4577 30.319 64.162 29.9957 64.0038 29.5845L58.1051 14.2062L72.1153 18.5515C72.3335 18.6192 72.5655 18.6006 72.7731 18.4989C72.9807 18.3971 73.1515 18.2183 73.2574 17.9918L80.0406 3.48719L85.9108 18.7911C86.0681 19.2027 86.075 19.6683 85.9299 20.0857C85.7849 20.503 85.4996 20.8381 85.1368 21.0175H85.1368Z" fill="#E6E6E6"/>
</g>
<defs>
<linearGradient id="paint0_linear" x1="106.821" y1="117.625" x2="305.218" y2="117.625" gradientUnits="userSpaceOnUse">
<stop stop-color="#2D6DD0"/>
<stop offset="0.99" stop-color="#6C139C"/>
</linearGradient>
<linearGradient id="paint1_linear" x1="45471.5" y1="-3.31743e+06" x2="94871.2" y2="-3.31743e+06" gradientUnits="userSpaceOnUse">
<stop stop-color="#2D6DD0"/>
<stop offset="0.99" stop-color="#6C139C"/>
</linearGradient>
<clipPath id="clip0">
<rect width="304" height="239" fill="white"/>
</clipPath>
</defs>
</svg>
