<svg width="100%" height="100%" viewBox="0 0 325 245" fill="none" xmlns="http://www.w3.org/2000/svg">
<g clip-path="url(#clip0)">
<path d="M149.875 52.2664H69.7014C69.3077 52.2659 68.9304 52.1096 68.652 51.8317C68.3737 51.5538 68.2171 51.177 68.2167 50.784V30.9272C68.2171 30.5342 68.3737 30.1574 68.652 29.8795C68.9304 29.6016 69.3077 29.4453 69.7014 29.4448H149.875C150.268 29.4453 150.646 29.6016 150.924 29.8795C151.202 30.1574 151.359 30.5342 151.36 30.9272V50.784C151.359 51.177 151.202 51.5538 150.924 51.8317C150.646 52.1096 150.268 52.2659 149.875 52.2664ZM69.7014 30.0378C69.4652 30.038 69.2388 30.1318 69.0718 30.2986C68.9048 30.4653 68.8108 30.6914 68.8106 30.9272V50.784C68.8108 51.0198 68.9048 51.2459 69.0718 51.4126C69.2388 51.5794 69.4652 51.6732 69.7014 51.6734H149.875C150.111 51.6732 150.337 51.5794 150.504 51.4126C150.671 51.2459 150.765 51.0198 150.766 50.784V30.9272C150.765 30.6914 150.671 30.4653 150.504 30.2986C150.337 30.1318 150.111 30.038 149.875 30.0378L69.7014 30.0378Z" fill="#3F3D56"/>
<path d="M82.1587 46.1322C85.4988 46.1322 88.2065 43.4287 88.2065 40.0937C88.2065 36.7588 85.4988 34.0552 82.1587 34.0552C78.8186 34.0552 76.1108 36.7588 76.1108 40.0937C76.1108 43.4287 78.8186 46.1322 82.1587 46.1322Z" fill="#6C63FF"/>
<path d="M96.1263 36.0681C95.859 36.0681 95.6026 36.1741 95.4136 36.3628C95.2245 36.5516 95.1183 36.8075 95.1183 37.0745C95.1183 37.3414 95.2245 37.5974 95.4136 37.7861C95.6026 37.9748 95.859 38.0809 96.1263 38.0809H143.645C143.912 38.0809 144.169 37.9748 144.358 37.7861C144.547 37.5974 144.653 37.3414 144.653 37.0745C144.653 36.8075 144.547 36.5516 144.358 36.3628C144.169 36.1741 143.912 36.0681 143.645 36.0681H96.1263Z" fill="#E6E6E6"/>
<path d="M96.1263 42.1065C95.859 42.1065 95.6026 42.2125 95.4136 42.4013C95.2245 42.59 95.1183 42.846 95.1183 43.1129C95.1183 43.3798 95.2245 43.6358 95.4136 43.8246C95.6026 44.0133 95.859 44.1193 96.1263 44.1193H116.574C116.706 44.1196 116.838 44.0937 116.96 44.0433C117.083 43.9928 117.194 43.9187 117.288 43.8252C117.382 43.7317 117.456 43.6207 117.507 43.4985C117.557 43.3763 117.584 43.2452 117.584 43.1129C117.584 42.9806 117.557 42.8496 117.507 42.7274C117.456 42.6051 117.382 42.4941 117.288 42.4006C117.194 42.3072 117.083 42.2331 116.96 42.1826C116.838 42.1321 116.706 42.1063 116.574 42.1065H96.1263Z" fill="#E6E6E6"/>
<path d="M115.068 123.047H79.4356C79.042 123.046 78.6646 122.89 78.3863 122.612C78.108 122.334 77.9514 121.957 77.9509 121.564V84.5118C77.9514 84.1188 78.108 83.742 78.3863 83.4641C78.6646 83.1862 79.042 83.0299 79.4356 83.0294H115.068C115.462 83.0299 115.839 83.1862 116.118 83.4641C116.396 83.742 116.553 84.1188 116.553 84.5118V121.564C116.553 121.957 116.396 122.334 116.118 122.612C115.839 122.89 115.462 123.046 115.068 123.047ZM79.4356 83.6224C79.1994 83.6226 78.973 83.7164 78.806 83.8832C78.639 84.0499 78.5451 84.276 78.5448 84.5118V121.564C78.5451 121.8 78.639 122.026 78.806 122.193C78.973 122.36 79.1994 122.453 79.4356 122.454H115.068C115.305 122.453 115.531 122.36 115.698 122.193C115.865 122.026 115.959 121.8 115.959 121.564V84.5118C115.959 84.276 115.865 84.0499 115.698 83.8832C115.531 83.7164 115.305 83.6226 115.068 83.6224H79.4356Z" fill="#3F3D56"/>
<path d="M87.0282 90.6703C86.7609 90.6703 86.5045 90.7764 86.3155 90.9651C86.1265 91.1539 86.0203 91.4098 86.0203 91.6768C86.0203 91.9437 86.1265 92.1997 86.3155 92.3884C86.5045 92.5771 86.7609 92.6832 87.0282 92.6832H107.476C107.743 92.6832 107.999 92.5771 108.188 92.3884C108.378 92.1997 108.484 91.9437 108.484 91.6768C108.484 91.4098 108.378 91.1539 108.188 90.9651C107.999 90.7764 107.743 90.6703 107.476 90.6703H87.0282Z" fill="#E6E6E6"/>
<path d="M87.0282 96.5999C86.8957 96.5997 86.7645 96.6255 86.6419 96.676C86.5194 96.7265 86.4081 96.8006 86.3143 96.894C86.2205 96.9875 86.1461 97.0985 86.0953 97.2208C86.0446 97.343 86.0184 97.474 86.0184 97.6063C86.0184 97.7386 86.0446 97.8697 86.0953 97.9919C86.1461 98.1141 86.2205 98.2251 86.3143 98.3186C86.4081 98.4121 86.5194 98.4862 86.6419 98.5366C86.7645 98.5871 86.8957 98.613 87.0282 98.6127H107.476C107.743 98.6127 107.999 98.5067 108.188 98.318C108.377 98.1292 108.484 97.8732 108.484 97.6063C108.484 97.3394 108.377 97.0834 108.188 96.8947C107.999 96.7059 107.743 96.5999 107.476 96.5999H87.0282Z" fill="#E6E6E6"/>
<path d="M97.252 115.406C95.9972 115.406 94.7705 115.034 93.7271 114.338C92.6837 113.642 91.8705 112.653 91.3903 111.495C90.9101 110.338 90.7844 109.064 91.0292 107.835C91.274 106.606 91.8783 105.477 92.7657 104.591C93.653 103.706 94.7835 103.102 96.0143 102.858C97.245 102.613 98.5207 102.739 99.6801 103.218C100.839 103.698 101.83 104.51 102.527 105.551C103.225 106.593 103.597 107.818 103.597 109.071C103.595 110.75 102.926 112.361 101.736 113.548C100.547 114.736 98.9342 115.404 97.252 115.406Z" fill="#6C63FF"/>
<path d="M173.441 0H209.073C209.467 0.000461485 209.844 0.156789 210.123 0.434691C210.401 0.712594 210.558 1.08938 210.558 1.48239V38.5349C210.558 38.9279 210.401 39.3047 210.123 39.5826C209.844 39.8605 209.467 40.0168 209.073 40.0173H173.441C173.047 40.0168 172.67 39.8605 172.391 39.5826C172.113 39.3047 171.956 38.9279 171.956 38.5349V1.48239C171.956 1.08938 172.113 0.712594 172.391 0.434691C172.67 0.156789 173.047 0.000461485 173.441 0ZM209.073 39.4243C209.31 39.4241 209.536 39.3303 209.703 39.1636C209.87 38.9968 209.964 38.7707 209.964 38.5349V1.48239C209.964 1.24658 209.87 1.02049 209.703 0.853749C209.536 0.687004 209.31 0.593213 209.073 0.592955H173.441C173.204 0.593213 172.978 0.687004 172.811 0.853749C172.644 1.02049 172.55 1.24658 172.55 1.48239V38.5349C172.55 38.7707 172.644 38.9968 172.811 39.1636C172.978 39.3303 173.204 39.4241 173.441 39.4243H209.073Z" fill="#3F3D56"/>
<path d="M201.481 32.3764C201.748 32.3764 202.004 32.2704 202.194 32.0816C202.383 31.8929 202.489 31.6369 202.489 31.37C202.489 31.1031 202.383 30.8471 202.194 30.6584C202.004 30.4696 201.748 30.3636 201.481 30.3636H181.033C180.766 30.3636 180.51 30.4696 180.321 30.6584C180.132 30.8471 180.025 31.1031 180.025 31.37C180.025 31.6369 180.132 31.8929 180.321 32.0816C180.51 32.2704 180.766 32.3764 181.033 32.3764H201.481Z" fill="#E6E6E6"/>
<path d="M201.481 26.4468C201.748 26.4468 202.004 26.3408 202.194 26.1521C202.383 25.9633 202.489 25.7074 202.489 25.4404C202.489 25.1735 202.383 24.9175 202.194 24.7288C202.004 24.5401 201.748 24.434 201.481 24.434H181.033C180.766 24.434 180.51 24.5401 180.321 24.7288C180.132 24.9175 180.025 25.1735 180.025 25.4404C180.025 25.7074 180.132 25.9633 180.321 26.1521C180.51 26.3408 180.766 26.4468 181.033 26.4468H201.481Z" fill="#E6E6E6"/>
<path d="M191.257 7.64087C192.512 7.64087 193.739 8.01241 194.782 8.70849C195.825 9.40458 196.639 10.394 197.119 11.5515C197.599 12.7091 197.725 13.9828 197.48 15.2117C197.235 16.4405 196.631 17.5693 195.743 18.4552C194.856 19.3412 193.726 19.9445 192.495 20.189C191.264 20.4334 189.988 20.3079 188.829 19.8285C187.67 19.349 186.679 18.537 185.982 17.4953C185.284 16.4535 184.912 15.2287 184.912 13.9758C184.914 12.2962 185.583 10.686 186.773 9.49842C187.962 8.3108 189.575 7.64277 191.257 7.64087Z" fill="#6C63FF"/>
<path d="M68.6745 76.6559C74.98 71.7799 82.3468 68.4548 90.1786 66.9499C98.0726 65.448 106.213 65.8656 113.911 68.1675C117.781 69.318 121.499 70.9265 124.986 72.9589C128.539 75.0327 131.75 77.5857 134.839 80.2887C137.968 83.027 140.994 85.8871 144.261 88.465C153.587 95.9082 165.165 99.9748 177.105 100.001C178.091 100.002 179.077 99.9753 180.062 99.9195C180.596 99.8902 180.599 99.0569 180.062 99.0865C167.891 99.7556 155.873 96.1295 146.11 88.843C142.725 86.3152 139.633 83.4249 136.477 80.6241C133.417 77.9087 130.276 75.2672 126.804 73.0857C118.313 67.7445 108.435 65.0181 98.4014 65.2464C88.3683 65.4747 78.6246 68.6478 70.386 74.3696C69.6026 74.9135 68.8374 75.4818 68.0846 76.0669C67.6613 76.3958 68.2556 76.9816 68.6745 76.656V76.6559Z" fill="#3F3D56"/>
<path d="M68.2316 80.6827C70.6263 80.6827 72.5676 78.7444 72.5676 76.3533C72.5676 73.9623 70.6263 72.024 68.2316 72.024C65.8368 72.024 63.8955 73.9623 63.8955 76.3533C63.8955 78.7444 65.8368 80.6827 68.2316 80.6827Z" fill="#3F3D56"/>
<path d="M229.542 138.165C231.937 138.165 233.878 136.226 233.878 133.835C233.878 131.444 231.937 129.506 229.542 129.506C227.147 129.506 225.206 131.444 225.206 133.835C225.206 136.226 227.147 138.165 229.542 138.165Z" fill="#3F3D56"/>
<path d="M252.258 109.173H181.506C181.113 109.173 180.735 109.016 180.457 108.739C180.179 108.461 180.022 108.084 180.021 107.691V70.9348C180.022 70.5418 180.179 70.165 180.457 69.8871C180.735 69.6092 181.113 69.4529 181.506 69.4524H252.258C252.651 69.4529 253.029 69.6092 253.307 69.8871C253.585 70.165 253.742 70.5418 253.742 70.9348V107.691C253.742 108.084 253.585 108.461 253.307 108.739C253.029 109.016 252.651 109.173 252.258 109.173ZM181.506 70.0454C181.27 70.0456 181.044 70.1394 180.877 70.3062C180.71 70.4729 180.616 70.699 180.615 70.9348V107.691C180.616 107.927 180.71 108.153 180.877 108.319C181.044 108.486 181.27 108.58 181.506 108.58H252.258C252.494 108.58 252.72 108.486 252.887 108.319C253.054 108.153 253.148 107.927 253.148 107.691V70.9348C253.148 70.699 253.054 70.4729 252.887 70.3062C252.72 70.1394 252.494 70.0456 252.258 70.0454H181.506Z" fill="#3F3D56"/>
<path d="M193.37 88.5116C196.71 88.5116 199.417 85.8081 199.417 82.4731C199.417 79.1381 196.71 76.4346 193.37 76.4346C190.029 76.4346 187.322 79.1381 187.322 82.4731C187.322 85.8081 190.029 88.5116 193.37 88.5116Z" fill="#6C63FF"/>
<path d="M207.337 78.4475C207.205 78.4472 207.073 78.4731 206.951 78.5235C206.828 78.574 206.717 78.6481 206.623 78.7416C206.53 78.8351 206.455 78.9461 206.404 79.0683C206.354 79.1905 206.327 79.3215 206.327 79.4539C206.327 79.5862 206.354 79.7172 206.404 79.8394C206.455 79.9617 206.53 80.0727 206.623 80.1662C206.717 80.2596 206.828 80.3337 206.951 80.3842C207.073 80.4347 207.205 80.4605 207.337 80.4603H245.434C245.701 80.4603 245.958 80.3543 246.147 80.1655C246.336 79.9768 246.442 79.7208 246.442 79.4539C246.442 79.1869 246.336 78.931 246.147 78.7422C245.958 78.5535 245.701 78.4475 245.434 78.4475H207.337Z" fill="#E6E6E6"/>
<path d="M207.337 84.486C207.205 84.4857 207.073 84.5116 206.951 84.562C206.828 84.6125 206.717 84.6866 206.623 84.7801C206.53 84.8736 206.455 84.9846 206.404 85.1068C206.354 85.229 206.327 85.3601 206.327 85.4924C206.327 85.6247 206.354 85.7557 206.404 85.8779C206.455 86.0002 206.53 86.1112 206.623 86.2047C206.717 86.2981 206.828 86.3722 206.951 86.4227C207.073 86.4732 207.205 86.499 207.337 86.4988H227.785C228.052 86.4988 228.308 86.3928 228.497 86.204C228.687 86.0153 228.793 85.7593 228.793 85.4924C228.793 85.2255 228.687 84.9695 228.497 84.7807C228.308 84.592 228.052 84.486 227.785 84.486H207.337Z" fill="#E6E6E6"/>
<path d="M188.731 94.1397C187.964 94.1397 187.34 94.5912 187.34 95.1461C187.34 95.701 187.964 96.1525 188.731 96.1525H244.87C245.637 96.1525 246.261 95.701 246.261 95.1461C246.261 94.5912 245.637 94.1397 244.87 94.1397H188.731Z" fill="#E6E6E6"/>
<path d="M188.731 100.178C187.964 100.178 187.34 100.63 187.34 101.185C187.34 101.739 187.964 102.191 188.731 102.191H244.87C245.637 102.191 246.261 101.739 246.261 101.185C246.261 100.63 245.637 100.178 244.87 100.178H188.731Z" fill="#E6E6E6"/>
<path d="M175.819 137.866C179.81 136.137 184.267 137.644 188.029 139.238C189.967 140.058 191.883 140.934 193.889 141.582C195.576 142.126 197.303 142.535 199.055 142.805C202.571 143.342 206.146 143.364 209.668 142.87C213.208 142.377 216.658 141.375 219.91 139.896C223.145 138.432 226.134 136.481 228.775 134.11C229.11 133.807 229.44 133.497 229.763 133.18C230.147 132.804 229.557 132.215 229.173 132.591C226.63 135.065 223.712 137.122 220.525 138.686C217.352 140.244 213.967 141.33 210.478 141.908C206.978 142.498 203.41 142.559 199.892 142.091C198.136 141.854 196.403 141.478 194.708 140.966C192.761 140.333 190.851 139.593 188.987 138.747C185.189 137.119 180.97 135.524 176.798 136.647C176.319 136.779 175.851 136.946 175.398 137.146C174.906 137.359 175.331 138.077 175.819 137.866V137.866Z" fill="#3F3D56"/>
<path d="M174.277 148.083H140.85L148.716 134.479C148.857 134.235 149.06 134.033 149.304 133.892C149.549 133.751 149.826 133.677 150.108 133.677C150.39 133.677 150.667 133.751 150.911 133.892C151.155 134.033 151.358 134.235 151.499 134.479L154.859 140.291L160.573 130.409C160.75 130.104 161.004 129.851 161.309 129.674C161.615 129.498 161.962 129.405 162.315 129.405C162.668 129.405 163.015 129.498 163.321 129.674C163.626 129.851 163.88 130.104 164.057 130.409L174.277 148.083Z" fill="#6C63FF"/>
<path d="M174.308 148.08H138.675C138.282 148.079 137.904 147.923 137.626 147.645C137.348 147.367 137.191 146.99 137.191 146.597V126.741C137.191 126.347 137.348 125.971 137.626 125.693C137.904 125.415 138.282 125.259 138.675 125.258H174.308C174.702 125.259 175.079 125.415 175.358 125.693C175.636 125.971 175.792 126.347 175.793 126.741V146.597C175.792 146.99 175.636 147.367 175.358 147.645C175.079 147.923 174.702 148.079 174.308 148.08ZM138.675 125.851C138.439 125.851 138.213 125.945 138.046 126.112C137.879 126.279 137.785 126.505 137.785 126.741V146.597C137.785 146.833 137.879 147.059 138.046 147.226C138.213 147.393 138.439 147.486 138.675 147.487H174.308C174.544 147.486 174.771 147.393 174.938 147.226C175.105 147.059 175.199 146.833 175.199 146.597V126.741C175.199 126.505 175.105 126.279 174.938 126.112C174.771 125.945 174.544 125.851 174.308 125.851H138.675Z" fill="#3F3D56"/>
<path d="M244.197 130.604L237.846 133.824C235.579 134.973 233.391 134.777 232.553 132.38C232.354 131.81 232.28 131.203 232.337 130.602C232.395 130 232.581 129.418 232.885 128.896C233.188 128.373 233.601 127.922 234.095 127.573C234.589 127.225 235.153 126.987 235.748 126.876L241.784 125.751L267.637 117.187L283.298 106.099L289.039 115.231L270.943 124.981L244.197 130.604Z" fill="#FFB8B8"/>
<path d="M273.846 237.494L268.987 236.685L269.527 227.52H274.656L273.846 237.494Z" fill="#FFB8B8"/>
<path d="M321.01 228.542L316.307 230.007L312.652 221.583L317.231 219.275L321.01 228.542Z" fill="#FFB8B8"/>
<path d="M318.391 220.512L312.452 222.938L284.105 185.74L275.196 229.407L269.257 228.329C265.447 190.682 262.34 152.282 266.152 134.121L288.154 133.177L298.143 164.984L303.003 186.548L318.391 220.512Z" fill="#2F2E41"/>
<path d="M273.579 244.905C272.69 245.096 271.764 244.997 270.935 244.625L268.049 243.328C265.628 243.204 263.98 243.685 262.632 241.929C262.252 241.427 262.013 240.833 261.941 240.208C261.868 239.583 261.965 238.95 262.22 238.374C262.473 237.797 262.875 237.297 263.386 236.926C263.896 236.555 264.496 236.327 265.124 236.264L269.089 233.77L269.297 235.64C271.11 236.665 273.261 236.222 275.541 235.224L276.785 239.573C276.946 240.134 276.989 240.721 276.913 241.299C276.836 241.878 276.642 242.434 276.341 242.934C276.04 243.434 275.64 243.867 275.165 244.206C274.69 244.545 274.15 244.783 273.579 244.905Z" fill="#2F2E41"/>
<path d="M322.934 235.985C322.156 236.453 321.248 236.66 320.343 236.577L317.191 236.286C314.861 236.953 313.459 237.943 311.613 236.719C311.09 236.368 310.671 235.883 310.399 235.315C310.127 234.747 310.013 234.117 310.067 233.49C310.118 232.862 310.336 232.259 310.699 231.743C311.061 231.226 311.554 230.816 312.128 230.553L315.066 226.908L315.871 228.609C317.919 228.991 319.81 227.875 321.641 226.192L324.233 229.902C324.567 230.38 324.799 230.922 324.915 231.493C325.031 232.065 325.027 232.654 324.906 233.225C324.784 233.795 324.546 234.334 324.207 234.809C323.868 235.284 323.435 235.684 322.934 235.985Z" fill="#2F2E41"/>
<path d="M280.055 94.9009C285.423 94.9009 289.774 90.5563 289.774 85.197C289.774 79.8377 285.423 75.4932 280.055 75.4932C274.688 75.4932 270.336 79.8377 270.336 85.197C270.336 90.5563 274.688 94.9009 280.055 94.9009Z" fill="#FFB8B8"/>
<path d="M291.934 105.683L279.245 102.987L277.626 92.475L286.535 90.5881L291.934 105.683Z" fill="#FFB8B8"/>
<path d="M288.424 134.525H265.747L270.859 121.711C270.487 117.302 272.359 114.06 275.037 111.236L278.436 102.718C283.926 99.1096 288.066 99.3792 292.474 104.066C297.7 111.454 294.083 122.56 288.424 134.525Z" fill="#6C63FF"/>
<path d="M278.166 161.75L277.521 168.833C277.29 171.361 275.961 173.107 273.482 172.541C272.892 172.406 272.339 172.146 271.859 171.778C271.379 171.41 270.985 170.943 270.703 170.408C270.421 169.874 270.257 169.285 270.224 168.682C270.191 168.079 270.289 167.475 270.512 166.913L272.766 161.21L279.245 134.794L278.166 115.656H288.964L287.615 136.142L278.166 161.75Z" fill="#FFB8B8"/>
<path d="M289.774 116.195H277.356L278.226 108.107C278.283 106.708 278.862 105.381 279.849 104.386C280.836 103.392 282.16 102.801 283.561 102.732C284.303 102.694 285.045 102.805 285.744 103.056C286.444 103.307 287.086 103.694 287.634 104.195C288.183 104.696 288.626 105.3 288.939 105.973C289.252 106.646 289.428 107.374 289.457 108.116L289.774 116.195Z" fill="#6C63FF"/>
<path d="M292.084 75.2193C294.101 75.2193 295.737 73.5863 295.737 71.5719C295.737 69.5574 294.101 67.9244 292.084 67.9244C290.066 67.9244 288.431 69.5574 288.431 71.5719C288.431 73.5863 290.066 75.2193 292.084 75.2193Z" fill="#2F2E41"/>
<path d="M288.32 70.6789C288.38 69.7535 288.791 68.8857 289.469 68.2524C290.148 67.619 291.042 67.2677 291.971 67.2699C291.896 67.2603 291.821 67.2487 291.744 67.2438C290.777 67.1823 289.826 67.5066 289.099 68.1452C288.372 68.7839 287.928 69.6848 287.866 70.6498C287.804 71.6148 288.128 72.5649 288.768 73.2913C289.407 74.0177 290.309 74.461 291.275 74.5236C291.352 74.5285 291.428 74.5266 291.504 74.5267C290.582 74.4102 289.74 73.9473 289.149 73.2324C288.557 72.5175 288.261 71.6044 288.32 70.6789Z" fill="#2F2E41"/>
<path d="M288.299 72.2365C285.041 69.538 275.697 72.9676 275.093 74.7819C270.688 75.3814 267.352 77.9478 267.352 82.5112V82.5112C269.971 83.5826 272.95 83.4505 276.171 82.5112C281.304 86.6881 281.656 91.9389 278.534 97.9699L282.375 98.0466L287.136 91.0993L287.363 98.1462L296.167 97.9699V87.8713C296.196 84.5137 295.422 81.1976 293.909 78.1985C292.537 75.5373 290.408 73.9834 288.299 72.2365Z" fill="#2F2E41"/>
<path d="M280.101 90.0783C281.066 90.0783 281.848 88.9851 281.848 87.6365C281.848 86.2878 281.066 85.1946 280.101 85.1946C279.136 85.1946 278.354 86.2878 278.354 87.6365C278.354 88.9851 279.136 90.0783 280.101 90.0783Z" fill="#FFB8B8"/>
<path d="M60.299 90.7351C60.299 90.7351 61.3505 72.562 66.8097 76.6914C72.2689 80.8208 64.4256 92.4205 64.4256 92.4205L60.299 90.7351Z" fill="#FFB9B9"/>
<path d="M39.9883 144.641C39.9883 144.641 52.1151 158.234 45.3304 159.168C38.5457 160.102 35.8768 146.363 35.8768 146.363L39.9883 144.641Z" fill="#FFB9B9"/>
<path d="M24.164 80.2995C25.686 80.6994 27.0558 81.5394 28.1012 82.714C29.1467 83.8886 29.8213 85.3455 30.0402 86.9016L33.8976 114.314L39.3052 136.181C39.3052 136.181 42.009 138.611 40.9275 139.961C39.846 141.311 42.2794 146.98 42.2794 146.98L35.5199 149.139C35.5199 149.139 34.7087 143.47 33.3569 143.2C32.1688 142.963 18.869 107.489 15.6632 98.8958C15.2212 97.7109 14.9711 97.037 14.9711 97.037C14.9711 97.037 15.5118 78.9497 24.164 80.2995Z" fill="#575A89"/>
<path d="M25.3986 223.255L29.5505 230.601C32.7657 237.455 29.9085 238.7 22.0252 235.302L20.2283 226.628L25.3986 223.255Z" fill="#FFB9B9"/>
<path d="M27.4935 233.018C27.4935 233.018 29.4644 229.814 30.1773 230.351C30.8902 230.887 33.8305 233.211 33.8305 233.211L37.6604 236.873C37.6604 236.873 50.5999 238.239 42.3778 242.766C34.1558 247.293 29.612 243.539 29.612 243.539C29.612 243.539 18.0962 244.137 18.2819 240.929C18.4677 237.722 22.1816 232.646 22.1816 232.646C22.1816 232.646 26.8624 235.78 27.4935 233.018Z" fill="#2F2E41"/>
<path d="M6.97478 140.217L10.8672 187.241C10.8672 187.241 10.9969 215.353 15.1488 220.793C19.3006 226.234 19.4303 228.955 19.4303 228.955L27.9936 224.55C27.9936 224.55 23.5822 217.211 24.4904 216.087C25.0503 215.375 25.4487 214.55 25.6581 213.668L23.3227 184.651L27.7341 134.128L6.97478 140.217Z" fill="#2F2E41"/>
<path d="M17.6137 223.255L13.9809 232.841L5.74203 229.402L10.0886 222.218L17.6137 223.255Z" fill="#FFB9B9"/>
<path d="M11.5532 229.612C11.5532 229.612 14.6432 227.684 15.0294 228.455C15.4157 229.227 16.9607 232.505 16.9607 232.505L18.6988 237.325C18.6988 237.325 29.3207 244.074 20.2438 244.46C11.1669 244.845 8.84943 239.639 8.84943 239.639C8.84943 239.639 -1.38618 235.204 0.158829 232.505C1.70384 229.805 7.11132 227.005 7.11132 227.005C7.11132 227.005 9.81506 231.733 11.5532 229.612Z" fill="#2F2E41"/>
<path d="M39.9301 140.346L42.0061 183.614C42.0061 183.614 23.0632 222.737 20.9873 223.773C20.3687 224.092 19.8204 224.531 19.3747 225.065C18.929 225.599 18.595 226.217 18.3924 226.882L6.97478 224.032L12.1646 215.741L23.5822 188.019C23.5822 188.019 25.3986 187.241 25.9176 184.651C26.4366 182.06 27.4746 182.06 24.8797 181.541C22.2848 181.023 22.2848 178.432 22.2848 178.432L13.7215 139.051L39.9301 140.346Z" fill="#2F2E41"/>
<path d="M40.8341 63.7615C41.7523 58.1117 37.9096 52.7885 32.2511 51.8717C26.5926 50.9548 21.2611 54.7916 20.3429 60.4413C19.4246 66.0911 23.2673 71.4143 28.9258 72.3311C34.5843 73.248 39.9158 69.4112 40.8341 63.7615Z" fill="#FFB9B9"/>
<path d="M21.3765 62.7491C21.3765 62.7491 20.5981 75.9627 19.5601 77.2581C18.5222 78.5536 30.4587 78.2945 30.4587 78.2945C30.4587 78.2945 29.6803 67.1537 30.4587 66.1173C31.2372 65.081 21.3765 62.7491 21.3765 62.7491Z" fill="#FFB9B9"/>
<path d="M40.7077 143.197C40.7077 143.197 11.3851 140.606 5.93716 143.197C5.93716 143.197 7.9427 135.768 7.42449 134.992C7.04761 134.424 8.0874 113.264 7.76099 101.058C7.57592 94.1707 5.98427 87.4444 10.6111 82.3308C12.186 80.5938 13.9425 79.1356 15.7966 78.4233C15.7966 78.4233 15.2784 73.5013 17.8728 73.2426C17.8728 73.2426 27.7356 72.2044 31.3665 75.3155C32.5274 76.3033 33.2576 79.3137 33.335 81.9074C31.5381 90.7302 32.1741 100.521 33.8229 110.677C33.9239 111.322 34.0349 111.971 34.1459 112.619C35.8957 122.692 38.5406 133.077 40.7077 143.197Z" fill="#575A89"/>
<path d="M25.166 65.1552C26.0438 65.1029 26.9009 65.3991 27.7726 65.5147C30.8914 65.9281 34.1359 63.6685 34.8245 60.6034C34.8797 60.1952 35.0015 59.7988 35.1852 59.43C35.6651 58.6476 36.7583 58.4984 37.6594 58.6783C38.5606 58.8582 39.4148 59.2793 40.3325 59.3274C41.7495 59.4016 43.1099 58.5306 43.865 57.3312C44.5787 56.0938 44.8822 54.6628 44.7321 53.2428L44.0528 53.9546C43.7768 53.3716 43.6702 52.7229 43.7452 52.0823C43.3852 51.9866 43.0067 51.9848 42.6458 52.077C42.2849 52.1692 41.9537 52.3523 41.6841 52.6089C41.0851 52.6726 41.5371 51.4996 41.0922 51.0943C40.8757 50.9615 40.6178 50.9133 40.3679 50.959C39.0937 50.9713 38.0629 49.9981 37.0587 49.2148C35.3189 47.8605 33.2844 46.9339 31.1196 46.5099C29.6807 46.2297 28.1507 46.1847 26.7861 46.7196C25.6845 47.2134 24.6904 47.9175 23.8596 48.7923C21.7232 50.8434 19.8314 53.2534 18.9426 56.0764C18.2201 58.3887 18.1996 60.8628 18.8838 63.1867C19.2419 64.3936 20.3213 68.5268 21.9013 68.623C23.8867 68.744 22.6947 65.3024 25.166 65.1552Z" fill="#2F2E41"/>
<path d="M29.4623 81.5715L33.181 81.9692C33.181 81.9692 36.8314 89.0404 36.5663 90.5153C36.3012 91.9903 35.7239 91.0948 37.3669 93.4546C39.0099 95.8143 43.6721 101.914 44.2494 102.809C44.8268 103.705 60.5659 91.7148 59.5874 88.1224C59.5874 88.1224 64.5582 91.6829 66.6878 92.1569C66.6878 92.1569 50.4675 113.397 48.2071 116.115C45.9467 118.833 44.1275 118.275 41.0212 116.663C37.9148 115.052 22.1999 98.9759 22.1999 98.9759L29.4623 81.5715Z" fill="#575A89"/>
<path opacity="0.1" d="M34.1459 112.619L21.221 99.7143L24.4918 98.6492L33.8229 110.677C33.9239 111.322 34.0349 111.971 34.1459 112.619Z" fill="black"/>
</g>
<defs>
<clipPath id="clip0">
<rect width="325" height="245" fill="white"/>
</clipPath>
</defs>
</svg>
