<svg width="100%" height="100%" viewBox="0 0 60 54" fill="none" xmlns="http://www.w3.org/2000/svg">
<g clip-path="url(#clip0)">
<path d="M35.5919 11.0711C36.9402 11.1446 35.1257 9.57135 54.0964 30.0739C54.1837 30.1682 54.2916 30.2624 54.3039 30.4132C54.274 30.6889 54.0778 31.0447 53.7917 31.0047C50.9016 30.7257 48.0128 30.4386 45.1234 30.1567C46.3149 32.6179 47.7863 33.1145 47.4433 34.6306C47.093 36.2482 45.2466 37.241 43.7847 37.5975C42.4628 41.1578 38.5907 41.843 38.7319 47.0861C38.8142 47.8793 37.9402 47.9904 37.8628 47.482C37.6838 45.9355 37.9864 44.6928 37.9874 44.5168C37.4052 45.674 37.2117 46.0434 36.782 47.4571C36.6028 47.8935 35.9357 47.7755 35.9423 47.3218C36.0249 46.9013 36.1593 46.4901 36.2816 46.0783C35.5864 47.547 35.8559 47.5693 34.9833 47.5871C33.9305 47.6102 32.6661 46.3628 33.0735 45.7281C37.1085 40.0715 39.6385 39.5661 41.7736 37.3129C43.528 35.5091 43.521 36.4043 44.986 35.5734C45.865 35.0768 46.1167 34.3799 46.0456 34.0086C45.9919 33.894 44.1867 32.0522 43.6002 30.0127C43.5131 29.9992 43.426 29.9892 43.3392 29.9793C43.284 31.6887 43.0618 33.4109 42.6674 35.1028C42.5873 35.5183 42.1542 35.7231 41.867 35.4026C35.5207 28.3798 31.5628 31.8523 26.1753 27.8574C24.3456 26.5046 21.8952 23.1768 15.2194 23.1714C14.7972 23.1468 14.7786 22.6556 14.9558 22.3686C15.9432 20.5736 17.2311 18.9636 18.7224 17.6595C16.2445 14.9434 13.7664 12.2271 11.2918 9.50776C11.0321 9.22191 11.3867 8.62555 11.7424 8.69133C19.6922 9.48418 27.6417 10.28 35.591 11.0705L35.5919 11.0711ZM29.171 10.9282C23.3306 10.3497 17.4927 9.75668 11.6511 9.18487C14.1286 11.9059 16.6085 14.6243 19.0877 17.3436C21.1192 15.661 24.4242 14.1025 25.6644 14.4268C26.0143 14.501 26.3439 14.6405 26.6878 14.736C34.4249 16.9992 42.3692 22.4519 42.7272 23.6443C42.8198 23.9493 43.3835 26.6968 43.3488 29.4818C46.8463 29.8308 50.3459 30.1669 53.8435 30.5144C48.0266 24.2285 42.2159 17.9356 36.394 11.6552C33.9885 11.4016 31.5776 11.1736 29.1705 10.928L29.171 10.9282ZM25.1868 14.8449C24.6849 14.8514 18.8219 16.1545 15.2706 22.677C22.2399 22.6452 25.0018 26.4757 26.8315 27.7289C31.9494 31.2811 36.0438 28.092 42.229 35.0885C43.4703 29.8768 42.6972 25.0225 42.2043 23.6485C37.2273 19.4528 31.4124 16.4432 25.1868 14.8449L25.1868 14.8449ZM44.0898 30.0543C45.3896 33.5744 47.7579 33.7384 45.9807 35.3948C45.0965 36.1853 44.4997 36.3945 43.8945 36.5695C43.9408 36.7222 43.9377 36.8916 43.9179 37.0573C44.8547 36.8258 45.8058 36.3571 46.4947 35.5372C47.7531 33.9897 46.5828 33.2173 45.8353 32.2538C45.3334 31.6173 44.9137 30.8959 44.6052 30.1094C44.4337 30.089 44.2604 30.079 44.0897 30.0543L44.0898 30.0543ZM41.3448 38.4238C41.1204 38.667 37.147 40.7375 33.422 45.9812C33.7525 46.7554 34.4707 47.2223 35.3895 47.0821C36.2301 44.7724 37.6959 42.7036 39.5036 41.1889C38.0118 42.8992 36.9005 45.0293 36.388 47.2822C36.9443 45.2628 37.9857 43.3558 39.3903 41.8629C38.4211 43.6443 38.1208 45.4677 38.2821 47.3351C38.4433 45.7577 37.5809 43.8986 42.4565 39.2404C42.6446 38.9171 43.5137 37.3152 43.4728 36.6921C43.1206 36.4017 41.7325 37.9898 41.3447 38.424L41.3448 38.4238Z" fill="white"/>
<path d="M36.3952 11.6558C42.2166 17.936 48.0274 24.2287 53.8447 30.515C50.3473 30.1676 46.8475 29.8314 43.35 29.4824C43.3686 27.9848 43.2454 26.5018 42.987 25.0637C42.7994 24.0116 42.8484 23.558 42.3839 23.0925C42.2057 22.9112 35.7488 17.3869 26.6888 14.7366C25.4227 14.3852 25.4966 14.1622 23.8387 14.6734C22.1635 15.2708 20.5346 16.1467 19.0887 17.3443C16.6094 14.6251 14.1295 11.9068 11.652 9.1856C15.3328 9.54595 34.8392 11.492 36.3953 11.6561L36.3952 11.6558Z" fill="#577EF4"/>
<path d="M42.2059 23.6495C42.3172 23.96 43.7093 28.881 42.2306 35.0895C36.0581 28.1075 31.9386 31.2736 26.8331 27.73C25.005 26.4778 22.2385 22.6461 15.2721 22.678C17.4446 18.6879 20.9309 15.8742 24.8837 14.9075C25.6381 14.7472 34.359 17.0344 42.2056 23.6493L42.2059 23.6495Z" fill="#577EF4"/>
<path d="M44.0917 30.0553C44.2624 30.0801 44.4357 30.09 44.6072 30.1104C45.8272 33.2206 48.1412 33.5157 46.4966 35.5383C45.8077 36.3581 44.8566 36.8268 43.9198 37.0583C43.9396 36.8926 43.9428 36.7232 43.8964 36.5705C44.4967 36.3969 45.0944 36.1899 45.9826 35.3959C47.4864 33.9944 46.0188 33.6254 44.7642 31.4953C44.4918 31.0492 44.2777 30.5592 44.0917 30.0554L44.0917 30.0553Z" fill="#9177F8"/>
<path d="M43.4754 36.692C43.5158 37.3092 42.6533 38.9065 42.4591 39.2402C37.6817 43.8046 38.4693 45.5288 38.2846 47.335C38.1237 45.4713 38.4221 43.6471 39.3929 41.8627C37.9882 43.3557 36.9469 45.2626 36.3905 47.282C36.903 45.0291 38.0143 42.8992 39.5062 41.1887C37.6984 42.7035 36.2327 44.7722 35.392 47.0819C34.4749 47.2218 33.7557 46.757 33.4246 45.981C37.1712 40.7069 41.0916 38.7011 41.3474 38.4236C41.7838 37.9351 43.132 36.4085 43.4755 36.6918L43.4754 36.692Z" fill="#FFB800"/>
</g>
<defs>
<clipPath id="clip0">
<rect width="49.1189" height="37.5767" fill="white" transform="translate(13.7307 0.870728) rotate(21.0329)"/>
</clipPath>
</defs>
</svg>
