<svg width="100%" height="100%" viewBox="0 0 216 216" fill="none" xmlns="http://www.w3.org/2000/svg">
<g clip-path="url(#clip0)">
<path d="M216 108C216.017 121.874 213.353 135.62 208.155 148.484C208.142 148.513 208.133 148.538 208.12 148.567V148.57C204.626 157.184 200.031 165.308 194.448 172.739C193.371 174.177 192.26 175.585 191.115 176.963C190.696 177.468 190.271 177.97 189.846 178.465C187.658 181.005 185.355 183.439 182.938 185.766C182.376 186.31 181.807 186.846 181.232 187.377C181.098 187.501 180.964 187.623 180.829 187.747C178.015 190.32 175.065 192.741 171.994 195.001C169.933 196.525 167.818 197.972 165.649 199.343C165.173 199.647 164.693 199.945 164.211 200.238C163.374 200.749 162.529 201.249 161.677 201.736C160.565 202.375 159.439 202.994 158.3 203.593C157.839 203.839 157.376 204.075 156.913 204.312C156.235 204.66 155.555 204.996 154.868 205.325C154.75 205.382 154.631 205.44 154.513 205.494C154.066 205.711 153.612 205.922 153.158 206.133C147.249 208.858 141.104 211.039 134.798 212.648C134.763 212.658 134.731 212.664 134.696 212.674C134.284 212.779 133.869 212.881 133.453 212.98C133.143 213.057 132.83 213.131 132.517 213.201C132.478 213.214 132.439 213.223 132.399 213.23C131.756 213.38 131.114 213.524 130.466 213.655C130.101 213.731 129.737 213.808 129.373 213.882C129.152 213.929 128.929 213.971 128.708 214.013C128.43 214.067 128.155 214.118 127.877 214.172C127.724 214.204 127.571 214.23 127.414 214.255C127.063 214.319 126.711 214.383 126.363 214.444C125.769 214.546 125.168 214.645 124.57 214.735C124.136 214.802 123.704 214.866 123.27 214.926C122.759 215 122.247 215.067 121.733 215.131C121.592 215.153 121.452 215.169 121.311 215.185C121.129 215.208 120.947 215.23 120.765 215.252C120.397 215.297 120.03 215.339 119.659 215.377C119.467 215.399 119.279 215.418 119.087 215.438C118.723 215.476 118.359 215.511 117.994 215.543C117.525 215.588 117.055 215.626 116.582 215.664C116.007 215.709 115.435 215.751 114.857 215.786C114.486 215.808 114.115 215.831 113.742 215.85C112.789 215.901 111.837 215.936 110.879 215.962C110.402 215.974 109.923 215.984 109.444 215.99H109.434C108.958 215.997 108.479 216 108 216C103.143 216.002 98.2908 215.678 93.4772 215.029C89.9464 214.556 86.4721 213.915 83.0542 213.105C82.9168 213.073 82.7794 213.041 82.6452 213.006C82.3001 212.926 81.9582 212.84 81.6163 212.754C81.3128 212.677 81.0124 212.597 80.7089 212.517C72.8857 210.481 65.318 207.567 58.1503 203.829C58.1152 203.81 58.0768 203.791 58.0417 203.772C57.834 203.663 57.6295 203.558 57.425 203.446C56.9744 203.209 56.526 202.969 56.0798 202.724C53.5395 201.327 51.0643 199.834 48.654 198.244C48.0341 197.838 47.4206 197.426 46.8135 197.007C46.6186 196.873 46.4269 196.739 46.2352 196.605C46.0339 196.464 45.8326 196.324 45.6344 196.183C45.1072 195.809 44.5832 195.431 44.0624 195.049C41.9056 193.464 39.8127 191.801 37.7837 190.061C30.5919 183.902 24.2369 176.828 18.8805 169.02C17.0112 166.298 15.2666 163.488 13.6466 160.591C4.66891 144.519 -0.0302114 126.41 -0.000346816 108C-0.000346816 48.354 48.3536 0 108 0C167.646 0 216 48.354 216 108Z" fill="#6C63FF"/>
<path opacity="0.2" d="M125.366 213.006C125.711 212.926 126.053 212.84 126.395 212.754C126.699 212.677 126.999 212.597 127.303 212.517C127.319 211.881 127.341 211.182 127.363 210.424C127.552 204.494 127.996 194.946 129.044 183.443C129.101 182.827 129.159 182.206 129.217 181.581C129.59 177.682 130.028 173.583 130.552 169.333C130.568 169.193 130.587 169.055 130.603 168.915C131.028 165.47 131.511 161.933 132.054 158.329C132.434 155.808 132.845 153.259 133.287 150.682C133.319 150.503 133.351 150.321 133.383 150.142C133.511 149.398 133.642 148.657 133.776 147.909C134.15 145.829 134.549 143.736 134.968 141.643C136.441 134.281 138.195 126.874 140.288 119.669C142.414 112.197 145.033 104.873 148.126 97.7464C150.525 92.2102 153.383 86.8843 156.67 81.8244C156.718 81.7509 156.766 81.6806 156.814 81.6071C161.016 75.2773 165.818 69.906 171.301 65.8896L170.164 64.3367C164.911 68.187 160.092 73.31 155.708 79.7059C155.686 79.7379 155.667 79.7666 155.645 79.7986C152.348 84.6871 149.47 89.8456 147.043 95.2189C143.792 102.406 141.05 109.813 138.837 117.384C136.741 124.42 134.861 132.043 133.198 140.253C132.613 143.145 132.055 146.108 131.523 149.142C131.434 149.66 131.345 150.178 131.255 150.698C131.255 150.705 131.252 150.714 131.252 150.721C131.115 151.52 130.983 152.318 130.849 153.127C130.517 155.162 130.204 157.182 129.91 159.185C129.456 162.272 129.046 165.305 128.68 168.285C128.558 169.269 128.441 170.246 128.328 171.215C128.168 172.583 128.017 173.932 127.875 175.264C127.673 177.117 127.489 178.931 127.322 180.705L127.274 181.194C127.248 181.475 127.223 181.756 127.197 182.034C125.9 196.026 125.494 207.328 125.366 213.006Z" fill="black"/>
<path opacity="0.2" d="M149.861 203.829C149.896 203.81 149.935 203.791 149.97 203.772C150.628 203.43 151.28 203.082 151.932 202.724C152.146 200.174 152.434 197.372 152.811 194.426C152.89 193.818 152.97 193.202 153.06 192.582C153.105 192.25 153.152 191.914 153.2 191.575C153.577 188.981 154.025 186.303 154.562 183.613C156.744 172.634 160.367 161.412 166.384 154.485C166.707 154.111 167.036 153.753 167.378 153.405C168.225 152.524 169.145 151.717 170.129 150.992L168.991 149.443C167.618 150.458 166.355 151.613 165.221 152.89C164.822 153.334 164.432 153.797 164.052 154.277C158.514 161.246 155.057 171.563 152.903 181.779C152.341 184.444 151.868 187.105 151.465 189.697C151.363 190.374 151.265 191.045 151.171 191.71C150.548 196.1 150.136 200.247 149.861 203.829Z" fill="black"/>
<path opacity="0.2" d="M182.046 65.8449C187.356 65.8449 191.661 61.5405 191.661 56.2308C191.661 50.9211 187.356 46.6167 182.046 46.6167C176.737 46.6167 172.432 50.9211 172.432 56.2308C172.432 61.5405 176.737 65.8449 182.046 65.8449Z" fill="black"/>
<path opacity="0.2" d="M178.951 148.605C184.26 148.605 188.565 144.301 188.565 138.991C188.565 133.681 184.26 129.377 178.951 129.377C173.641 129.377 169.336 133.681 169.336 138.991C169.336 144.301 173.641 148.605 178.951 148.605Z" fill="black"/>
<path opacity="0.2" d="M143.878 72.3795C145.917 83.8816 141.416 94.2966 141.416 94.2966C141.416 94.2966 133.61 86.063 131.572 74.5608C129.533 63.0587 134.034 52.6438 134.034 52.6438C134.034 52.6438 141.84 60.8774 143.878 72.3795Z" fill="black"/>
<path opacity="0.2" d="M175.83 99.6832C164.859 103.695 153.835 101.12 153.835 101.12C153.835 101.12 160.598 92.0418 171.569 88.0301C182.54 84.0184 193.564 86.5929 193.564 86.5929C193.564 86.5929 186.801 95.6715 175.83 99.6832Z" fill="black"/>
<path opacity="0.2" d="M177.69 172.97C170.001 175.782 162.263 173.948 162.263 173.948C162.263 173.948 166.992 167.555 174.682 164.743C182.372 161.931 190.11 163.765 190.11 163.765C190.11 163.765 185.38 170.159 177.69 172.97Z" fill="black"/>
<path d="M140.579 171.353L140.969 171.554C140.931 171.969 140.838 172.225 140.579 171.353Z" fill="#2F2E41"/>
<path d="M141.093 171.487C141.097 171.531 141.103 171.579 141.106 171.624L140.969 171.554C140.972 171.512 140.975 171.467 140.982 171.423C141.014 170.864 140.975 170.202 141.093 171.487Z" fill="#2F2E41"/>
<path d="M99.591 156.201C128.569 156.201 152.06 132.709 152.06 103.731C152.06 74.7534 128.569 51.2622 99.591 51.2622C70.6131 51.2622 47.1218 74.7534 47.1218 103.731C47.1218 132.709 70.6131 156.201 99.591 156.201Z" fill="#2F2E41"/>
<path d="M103.91 154.062C121.459 154.062 135.685 139.836 135.685 122.287C135.685 104.738 121.459 90.5117 103.91 90.5117C86.3612 90.5117 72.135 104.738 72.135 122.287C72.135 139.836 86.3612 154.062 103.91 154.062Z" fill="#D0CDE1"/>
<path d="M176.465 183.188L176.427 183.197L169.036 184.971L153.648 188.665L151.548 189.169L128.146 194.783L126.159 195.263L69.382 208.887C65.5439 207.419 61.7938 205.73 58.1507 203.829C58.1155 203.81 58.0772 203.791 58.042 203.772C57.8343 203.663 57.6298 203.558 57.4253 203.446C56.9748 203.209 56.5264 202.969 56.0801 202.724C53.5399 201.327 51.0646 199.834 48.6543 198.244C48.0345 197.838 47.421 197.426 46.8139 197.007C46.619 196.873 46.4272 196.739 46.2355 196.605C46.0342 196.464 45.8329 196.324 45.6348 196.183C45.1076 195.809 44.5836 195.431 44.0627 195.049C49.5778 185.025 62.7103 178.363 75.8429 174.717C85.7546 171.963 87.9337 162.911 87.7452 154.855C87.6973 153.018 87.5415 151.185 87.2787 149.366C86.8783 146.471 86.2414 143.613 85.3743 140.822L117.151 141.883L120.43 149.436C120.34 150.266 120.311 151.101 120.343 151.935C120.593 158.131 124.417 162.137 129.137 164.722C129.75 165.058 130.38 165.371 131.019 165.662C138.758 169.18 147.867 169.419 147.867 169.419C150.641 169.113 153.443 169.165 156.204 169.576C156.875 169.678 157.527 169.801 158.159 169.943C161.853 170.769 165.343 172.331 168.419 174.535C169.594 175.371 170.706 176.293 171.746 177.293C173.593 179.021 175.182 181.007 176.465 183.188Z" fill="#D0CDE1"/>
<path d="M181.233 187.377C181.098 187.501 180.964 187.623 180.83 187.747C178.015 190.32 175.066 192.741 171.995 195.001C169.934 196.525 167.819 197.972 165.649 199.343C165.173 199.647 164.694 199.945 164.211 200.238C163.374 200.749 162.53 201.249 161.677 201.736C160.566 202.375 159.44 202.994 158.3 203.593C157.84 203.839 157.377 204.075 156.913 204.312C156.236 204.66 155.555 204.996 154.868 205.325C154.75 205.382 154.632 205.44 154.514 205.494L153.162 204.372L169.036 184.971L172.228 181.069C172.228 181.069 173.503 181.069 176.427 183.197C178.043 184.4 179.57 185.718 180.996 187.14C181.073 187.22 181.153 187.297 181.233 187.377Z" fill="#D0CDE1"/>
<path d="M181.009 187.16C180.966 187.36 180.906 187.557 180.83 187.748C178.015 190.32 175.066 192.741 171.995 195.001C169.33 195.961 166.566 196.618 163.754 196.959C163.754 196.959 163.994 198.161 164.211 200.238C163.374 200.749 162.529 201.249 161.677 201.736C160.565 202.375 159.439 202.994 158.3 203.593C157.84 203.839 157.376 204.075 156.913 204.312C156.236 204.66 155.555 204.996 154.868 205.325C154.75 205.382 154.632 205.44 154.513 205.494C154.066 205.711 153.612 205.922 153.159 206.133C147.249 208.859 141.104 211.039 134.799 212.648C134.764 212.658 134.732 212.664 134.696 212.674C134.284 212.779 133.869 212.882 133.453 212.981C133.143 213.057 132.83 213.131 132.517 213.201C132.479 213.214 132.439 213.223 132.399 213.23C131.757 213.38 131.115 213.524 130.466 213.655C130.102 213.731 129.737 213.808 129.373 213.882C129.153 213.93 128.929 213.971 128.708 214.013C128.43 214.067 128.156 214.118 127.878 214.172C127.724 214.204 127.571 214.23 127.414 214.255C127.063 214.319 126.711 214.383 126.363 214.444C125.769 214.546 125.168 214.645 124.571 214.735C124.136 214.802 123.705 214.866 123.27 214.926C122.759 215 122.248 215.067 121.733 215.131C121.593 215.153 121.452 215.169 121.311 215.185C121.129 215.208 120.947 215.23 120.765 215.252C120.398 215.297 120.03 215.339 119.659 215.377C119.468 215.399 119.279 215.419 119.088 215.438C118.723 215.476 118.359 215.511 117.995 215.543C117.525 215.588 117.055 215.626 116.582 215.665C116.007 215.709 115.435 215.751 114.857 215.786C114.486 215.808 114.116 215.831 113.742 215.85C112.79 215.901 111.837 215.936 110.879 215.962C110.403 215.975 109.924 215.984 109.444 215.991H109.435C108.959 215.997 108.479 216 108 216C103.143 216.002 98.2911 215.678 93.4775 215.029C89.9467 214.556 86.4724 213.915 83.0545 213.105C82.9171 213.073 82.7797 213.041 82.6455 213.006C82.3004 212.926 81.9585 212.84 81.6166 212.754C81.3131 212.677 81.0128 212.597 80.7092 212.517C72.886 210.481 65.3184 207.567 58.1506 203.829C58.1155 203.81 58.0771 203.791 58.042 203.772C57.8343 203.663 57.6298 203.558 57.4253 203.446C74.9641 199.359 102.68 192.914 126.731 187.393C127.405 187.239 128.075 187.086 128.74 186.933C137.623 184.894 145.944 182.996 152.983 181.408C153.711 181.245 154.425 181.085 155.124 180.929C162.687 179.229 168.56 177.938 171.746 177.293C172.604 177.096 173.472 176.944 174.346 176.836L180.996 187.14L181.009 187.16Z" fill="#2F2E41"/>
<path d="M51.5874 81.4042C60.2191 81.4042 67.2165 74.4068 67.2165 65.7751C67.2165 57.1434 60.2191 50.146 51.5874 50.146C42.9556 50.146 35.9583 57.1434 35.9583 65.7751C35.9583 74.4068 42.9556 81.4042 51.5874 81.4042Z" fill="#2F2E41"/>
<path d="M147.595 76.9386C156.226 76.9386 163.224 69.9413 163.224 61.3095C163.224 52.6778 156.226 45.6804 147.595 45.6804C138.963 45.6804 131.966 52.6778 131.966 61.3095C131.966 69.9413 138.963 76.9386 147.595 76.9386Z" fill="#2F2E41"/>
<path d="M130.849 54.6113C130.85 50.7565 132.275 47.038 134.851 44.1701C137.426 41.3023 140.971 39.4875 144.804 39.0746C142.621 38.8362 140.413 39.0603 138.323 39.7324C136.232 40.4045 134.307 41.5095 132.672 42.9753C131.038 44.4411 129.73 46.2349 128.835 48.2398C127.94 50.2447 127.478 52.4157 127.478 54.6113C127.478 56.8069 127.94 58.9779 128.835 60.9828C129.73 62.9877 131.038 64.7815 132.672 66.2473C134.307 67.7132 136.232 68.8181 138.323 69.4902C140.413 70.1623 142.621 70.3864 144.804 70.148C140.971 69.7351 137.426 67.9203 134.851 65.0525C132.275 62.1847 130.85 58.4661 130.849 54.6113V54.6113Z" fill="#2F2E41"/>
<path d="M34.1241 78.417C31.4266 75.6633 29.8421 72.0098 29.6748 68.1587C29.5076 64.3075 30.7695 60.5304 33.218 57.5532C31.4922 58.9105 30.0716 60.6161 29.049 62.559C28.0264 64.502 27.4246 66.6386 27.2828 68.8296C27.1411 71.0207 27.4626 73.217 28.2264 75.2755C28.9902 77.3339 30.1792 79.2084 31.7158 80.7767C33.2524 82.345 35.1022 83.5719 37.1447 84.3775C39.1872 85.1831 41.3765 85.5494 43.57 85.4524C45.7634 85.3553 47.9119 84.7973 49.8752 83.8145C51.8386 82.8317 53.5729 81.4462 54.9651 79.7484C51.9385 82.1357 48.1365 83.3203 44.2896 83.0746C40.4426 82.8288 36.8222 81.17 34.1241 78.417V78.417Z" fill="#2F2E41"/>
<path d="M99.591 79.1714C81.0945 79.1714 66.1001 87.9181 66.1001 98.7078C66.1001 103.536 69.1141 107.948 74.0892 111.356L80.5366 106.685L78.7833 114.003C79.5108 114.341 80.2536 114.667 81.0284 114.968L90.6601 103.731V117.536C93.6135 118.009 96.6 118.246 99.591 118.244C118.088 118.244 133.082 109.497 133.082 98.7078C133.082 87.9181 118.088 79.1714 99.591 79.1714Z" fill="#2F2E41"/>
<path d="M131.966 61.3096C131.966 61.3096 129.538 72.4732 144.707 76.9387L131.966 61.3096Z" fill="#2F2E41"/>
<path d="M66.0999 63.3416C66.0999 63.3416 71.6818 75.8224 54.9363 81.4043L66.0999 63.3416Z" fill="#2F2E41"/>
<path d="M74.3779 134.761C75.7862 134.367 76.1608 131.308 75.2146 127.928C74.2684 124.548 72.3598 122.128 70.9515 122.522C69.5432 122.916 69.1686 125.976 70.1148 129.356C71.061 132.735 72.9697 135.156 74.3779 134.761Z" fill="#D0CDE1"/>
<path d="M138.858 123.509C139.073 120.006 138.065 117.093 136.605 117.003C135.146 116.913 133.788 119.68 133.572 123.183C133.356 126.686 134.364 129.599 135.824 129.689C137.284 129.779 138.642 127.012 138.858 123.509Z" fill="#D0CDE1"/>
</g>
<defs>
<clipPath id="clip0">
<rect width="216" height="216" fill="white"/>
</clipPath>
</defs>
</svg>
