<svg width="100%" height="100%" viewBox="0 0 229 229" fill="none" xmlns="http://www.w3.org/2000/svg">
<path d="M229 114.5C229 177.736 177.736 229 114.5 229C51.2636 229 0 177.736 0 114.5C0 51.2635 51.2636 -6.10352e-05 114.5 -6.10352e-05C177.736 -6.10352e-05 229 51.2635 229 114.5Z" fill="#9177F8"/>
<path d="M147.32 113.42C147.32 87.1706 122.414 65.8914 91.6905 65.8914C60.9667 65.8914 36.0608 87.1706 36.0608 113.42C36.0608 135.868 54.276 154.678 78.7666 159.656V173.438L101.334 160.408L101.093 160.269C127.338 156.451 147.32 136.93 147.32 113.42Z" fill="#FFB800"/>
<path d="M197.26 113.42C197.26 89.8554 174.902 70.7523 147.32 70.7523C140.776 70.7523 134.528 71.8292 128.801 73.7844C142.393 83.0859 151.101 97.3833 151.101 113.42C151.101 129.456 142.393 143.753 128.801 153.056C134.297 154.931 140.277 155.988 146.534 156.071L146.506 156.087L162.497 165.32V154.078C182.657 148.59 197.26 132.463 197.26 113.42Z" fill="#FFB800"/>
<path d="M143 114.5C143 88.2509 118.093 66.9717 87.37 66.9717C56.6462 66.9717 31.7402 88.2509 31.7402 114.5C31.7402 136.948 49.956 155.758 74.446 160.736V174.518L97.0139 161.488L96.7725 161.349C123.018 157.531 143 138.01 143 114.5Z" fill="white"/>
<path d="M192.939 114.5C192.939 90.9357 170.581 71.8326 142.999 71.8326C136.455 71.8326 130.207 72.9095 124.48 74.8647C138.073 84.1662 146.78 98.4636 146.78 114.5C146.78 130.537 138.073 144.833 124.48 154.136C129.977 156.012 135.956 157.068 142.213 157.151L142.185 157.168L158.176 166.4V155.158C178.336 149.67 192.939 133.543 192.939 114.5Z" fill="white"/>
<path d="M67.926 130.568C67.926 133.774 65.3265 136.374 62.12 136.374C58.9134 136.374 56.314 133.774 56.314 130.568C56.314 127.361 58.9134 124.762 62.12 124.762C65.3265 124.762 67.926 127.361 67.926 130.568Z" fill="#577EF4"/>
<path d="M66.3431 129.997C66.1033 129.997 65.8845 129.837 65.8208 129.594C65.4892 128.329 64.5067 127.302 63.2564 126.914C62.9713 126.825 62.8125 126.522 62.9005 126.237C62.9896 125.952 63.2932 125.795 63.5767 125.882C65.1802 126.38 66.4403 127.697 66.8659 129.32C66.9415 129.608 66.7692 129.904 66.4802 129.98C66.4343 129.991 66.3884 129.997 66.3431 129.997Z" fill="white"/>
<path d="M92.9953 130.568C92.9953 133.774 90.3959 136.374 87.1893 136.374C83.9828 136.374 81.3833 133.774 81.3833 130.568C81.3833 127.361 83.9828 124.762 87.1893 124.762C90.3959 124.762 92.9953 127.361 92.9953 130.568Z" fill="#577EF4"/>
<path d="M91.4124 129.997C91.1726 129.997 90.9539 129.837 90.8901 129.594C90.5585 128.329 89.5761 127.302 88.3258 126.914C88.0406 126.825 87.8818 126.522 87.9698 126.237C88.059 125.952 88.3625 125.795 88.646 125.882C90.2496 126.38 91.5096 127.697 91.9352 129.32C92.0108 129.608 91.8385 129.904 91.5496 129.98C91.5037 129.991 91.4578 129.997 91.4124 129.997Z" fill="white"/>
<path d="M118.065 130.568C118.065 133.774 115.465 136.374 112.259 136.374C109.052 136.374 106.453 133.774 106.453 130.568C106.453 127.361 109.052 124.762 112.259 124.762C115.465 124.762 118.065 127.361 118.065 130.568Z" fill="#577EF4"/>
<path d="M116.482 129.997C116.242 129.997 116.023 129.837 115.959 129.594C115.628 128.329 114.645 127.302 113.396 126.914C113.11 126.825 112.951 126.522 113.04 126.237C113.128 125.952 113.432 125.795 113.715 125.882C115.319 126.38 116.579 127.697 117.004 129.32C117.08 129.608 116.908 129.904 116.619 129.98C116.573 129.991 116.527 129.997 116.482 129.997Z" fill="white"/>
</svg>
